<svg xmlns="http://www.w3.org/2000/svg" viewBox="0 0 960 680" width="960" height="680">
  <defs>
    <marker id="arrowA" markerWidth="10" markerHeight="7" refX="9" refY="3.5" orient="auto">
      <polygon points="0 0, 10 3.5, 0 7" fill="#7c3aed"/>
    </marker>
    <marker id="arrowB" markerWidth="10" markerHeight="7" refX="9" refY="3.5" orient="auto">
      <polygon points="0 0, 10 3.5, 0 7" fill="#10b981"/>
    </marker>
    <marker id="arrowC" markerWidth="10" markerHeight="7" refX="9" refY="3.5" orient="auto">
      <polygon points="0 0, 10 3.5, 0 7" fill="#2563eb"/>
    </marker>
    <marker id="arrowE" markerWidth="10" markerHeight="7" refX="9" refY="3.5" orient="auto">
      <polygon points="0 0, 10 3.5, 0 7" fill="#f97316"/>
    </marker>
    <marker id="arrowF" markerWidth="10" markerHeight="7" refX="9" refY="3.5" orient="auto">
      <polygon points="0 0, 10 3.5, 0 7" fill="#7c3aed"/>
    </marker>
    <marker id="arrowG" markerWidth="10" markerHeight="7" refX="9" refY="3.5" orient="auto">
      <polygon points="0 0, 10 3.5, 0 7" fill="#ef4444"/>
    </marker>
    <marker id="arrowH" markerWidth="10" markerHeight="7" refX="9" refY="3.5" orient="auto">
      <polygon points="0 0, 10 3.5, 0 7" fill="#6b7280"/>
    </marker>
    <filter id="shadowSoft" x="-20%" y="-20%" width="140%" height="160%">
      <feDropShadow dx="0" dy="3" stdDeviation="6" flood-color="#0f172a" flood-opacity="0.12"/>
    </filter>
    <filter id="shadowGlass" x="-20%" y="-20%" width="140%" height="160%">
      <feDropShadow dx="0" dy="10" stdDeviation="16" flood-color="#020617" flood-opacity="0.28"/>
    </filter>
    <style>
    text { font-family: 'Noto Sans SC', 'Helvetica Neue', Helvetica, Arial, 'Microsoft YaHei', sans-serif; }
    .title { font-size: 30px; font-weight: 700; fill: #111827; }
    .subtitle { font-size: 14px; font-weight: 500; fill: #6b7280; }
    .section { font-size: 13px; font-weight: 700; fill: #2563eb; letter-spacing: 1.4px; }
    .section-sub { font-size: 12px; font-weight: 500; fill: #94a3b8; }
    .node-title { font-size: 15px; font-weight: 700; fill: #111827; }
    .node-sub { font-size: 12px; font-weight: 500; fill: #6b7280; }
    .node-type { font-size: 12px; font-weight: 700; fill: #9ca3af; letter-spacing: 0.08em; }
    .arrow-label { font-size: 12px; font-weight: 600; fill: #6b7280; }
    .legend { font-size: 12px; font-weight: 500; fill: #6b7280; }
    .footnote { font-size: 12px; font-weight: 500; fill: #94a3b8; }
    </style>
  </defs>
  <rect width="960.0" height="680.0" fill="#ffffff"/>
  <text x="480.0" y="56" text-anchor="middle" class="title">ADAM 逻辑分层</text>
  <rect x="60.0" y="120.0" width="840.0" height="90.0" rx="16.0" fill="none" stroke="#dbe5f1" stroke-width="1.4" stroke-dasharray="6 5"/>
  <text x="78.0" y="144.0" class="section">接口层</text>
  <rect x="60.0" y="230.0" width="840.0" height="90.0" rx="16.0" fill="none" stroke="#dbe5f1" stroke-width="1.4" stroke-dasharray="6 5"/>
  <text x="78.0" y="254.0" class="section">应用层</text>
  <rect x="60.0" y="340.0" width="840.0" height="90.0" rx="16.0" fill="none" stroke="#dbe5f1" stroke-width="1.4" stroke-dasharray="6 5"/>
  <text x="78.0" y="364.0" class="section">领域层</text>
  <rect x="60.0" y="450.0" width="840.0" height="90.0" rx="16.0" fill="none" stroke="#dbe5f1" stroke-width="1.4" stroke-dasharray="6 5"/>
  <text x="78.0" y="474.0" class="section">基础设施层</text>
  <path d="M 185.0,200.0 L 160.0,260.0" fill="none" stroke="#7c3aed" stroke-width="2.4" marker-end="url(#arrowA)"/>
  <path d="M 365.0,200.0 L 160.0,260.0" fill="none" stroke="#7c3aed" stroke-width="2.4" marker-end="url(#arrowA)"/>
  <path d="M 620.0,200.0 L 840.0,260.0" fill="none" stroke="#7c3aed" stroke-width="2.4" marker-end="url(#arrowA)"/>
  <path d="M 160.0,310.0 L 160.0,370.0" fill="none" stroke="#2563eb" stroke-width="2.4" marker-end="url(#arrowC)"/>
  <path d="M 320.0,310.0 L 485.0,370.0" fill="none" stroke="#2563eb" stroke-width="2.4" marker-end="url(#arrowC)"/>
  <path d="M 505.0,310.0 L 315.0,370.0" fill="none" stroke="#2563eb" stroke-width="2.4" marker-end="url(#arrowC)"/>
  <path d="M 620.0,285.0 L 220.0,395.0" fill="none" stroke="#2563eb" stroke-width="2.4" marker-end="url(#arrowC)"/>
  <path d="M 840.0,310.0 L 655.0,370.0" fill="none" stroke="#2563eb" stroke-width="2.4" marker-end="url(#arrowC)"/>
  <path d="M 160.0,310.0 L 210.0,480.0" fill="none" stroke="#10b981" stroke-width="2.4" marker-end="url(#arrowB)"/>
  <path d="M 320.0,310.0 L 210.0,480.0" fill="none" stroke="#10b981" stroke-width="2.4" marker-end="url(#arrowB)"/>
  <path d="M 840.0,310.0 L 385.0,480.0" fill="none" stroke="#7c3aed" stroke-width="2.4" marker-end="url(#arrowA)"/>
  <path d="M 490.0,505.0 L 280.0,510.0" fill="none" stroke="#10b981" stroke-width="2.4" marker-end="url(#arrowB)"/>
  <rect x="120.0" y="150.0" width="130.0" height="50.0" rx="10.0" fill="#ffffff" stroke="#d1d5db" stroke-width="1.8" filter="url(#shadowSoft)"/>
  <text x="185.0" y="175.0" text-anchor="middle" class="node-title">REST API</text>
  <rect x="300.0" y="150.0" width="130.0" height="50.0" rx="10.0" fill="#ffffff" stroke="#d1d5db" stroke-width="1.8" filter="url(#shadowSoft)"/>
  <text x="365.0" y="175.0" text-anchor="middle" class="node-title">MCP Server</text>
  <rect x="480.0" y="150.0" width="280.0" height="50.0" rx="10.0" fill="#ffffff" stroke="#d1d5db" stroke-width="1.8" filter="url(#shadowSoft)"/>
  <text x="620.0" y="175.0" text-anchor="middle" class="node-title">Git Hook / Webhook / CI Adapter</text>
  <rect x="100.0" y="260.0" width="120.0" height="50.0" rx="10.0" fill="#ffffff" stroke="#d1d5db" stroke-width="1.8" filter="url(#shadowSoft)"/>
  <text x="160.0" y="285.0" text-anchor="middle" class="node-title">资产服务</text>
  <rect x="250.0" y="260.0" width="140.0" height="50.0" rx="10.0" fill="#ffffff" stroke="#d1d5db" stroke-width="1.8" filter="url(#shadowSoft)"/>
  <text x="320.0" y="285.0" text-anchor="middle" class="node-title">版本发布服务</text>
  <rect x="420.0" y="260.0" width="170.0" height="50.0" rx="10.0" fill="#ffffff" stroke="#d1d5db" stroke-width="1.8" filter="url(#shadowSoft)"/>
  <text x="505.0" y="285.0" text-anchor="middle" class="node-title">依赖与影响分析服务</text>
  <rect x="620.0" y="260.0" width="140.0" height="50.0" rx="10.0" fill="#ffffff" stroke="#d1d5db" stroke-width="1.8" filter="url(#shadowSoft)"/>
  <text x="690.0" y="285.0" text-anchor="middle" class="node-title">状态传播服务</text>
  <rect x="780.0" y="260.0" width="120.0" height="50.0" rx="10.0" fill="#ffffff" stroke="#d1d5db" stroke-width="1.8" filter="url(#shadowSoft)"/>
  <text x="840.0" y="285.0" text-anchor="middle" class="node-title">工作流服务</text>
  <rect x="100.0" y="370.0" width="120.0" height="50.0" rx="10.0" fill="#ffffff" stroke="#d1d5db" stroke-width="1.8" filter="url(#shadowSoft)"/>
  <text x="160.0" y="395.0" text-anchor="middle" class="node-title">资产模型</text>
  <rect x="250.0" y="370.0" width="130.0" height="50.0" rx="10.0" fill="#ffffff" stroke="#d1d5db" stroke-width="1.8" filter="url(#shadowSoft)"/>
  <text x="315.0" y="395.0" text-anchor="middle" class="node-title">依赖图模型</text>
  <rect x="410.0" y="370.0" width="150.0" height="50.0" rx="10.0" fill="#ffffff" stroke="#d1d5db" stroke-width="1.8" filter="url(#shadowSoft)"/>
  <text x="485.0" y="395.0" text-anchor="middle" class="node-title">版本与基线模型</text>
  <rect x="590.0" y="370.0" width="130.0" height="50.0" rx="10.0" fill="#ffffff" stroke="#d1d5db" stroke-width="1.8" filter="url(#shadowSoft)"/>
  <text x="655.0" y="395.0" text-anchor="middle" class="node-title">工作流模型</text>
  <rect x="740.0" y="370.0" width="150.0" height="50.0" rx="10.0" fill="#ffffff" stroke="#d1d5db" stroke-width="1.8" filter="url(#shadowSoft)"/>
  <text x="815.0" y="395.0" text-anchor="middle" class="node-title">规则与策略模型</text>
  <ellipse cx="210.0" cy="487.5" rx="35.0" ry="7.5" fill="#ecfdf5" stroke="#10b981" stroke-width="2.2"/>
  <rect x="140.0" y="487.5" width="140.0" height="45.0" fill="#ecfdf5" stroke="#10b981" stroke-width="2.2"/>
  <ellipse cx="210.0" cy="532.5" rx="35.0" ry="7.5" fill="#ecfdf5" stroke="#10b981" stroke-width="2.2"/>
  <ellipse cx="210.0" cy="502.8" rx="35.0" ry="7.5" fill="none" stroke="#10b981" stroke-opacity="0.45" stroke-width="1.2"/>
  <ellipse cx="210.0" cy="516.0" rx="35.0" ry="7.5" fill="none" stroke="#10b981" stroke-opacity="0.25" stroke-width="1.2"/>
  <text x="210.0" y="504.0" text-anchor="middle" class="node-title">PostgreSQL</text>
  <rect x="320.0" y="480.0" width="130.0" height="50.0" rx="10.0" fill="#ffffff" stroke="#d1d5db" stroke-width="1.8" filter="url(#shadowSoft)"/>
  <text x="385.0" y="505.0" text-anchor="middle" class="node-title">异步 Worker</text>
  <rect x="490.0" y="480.0" width="160.0" height="50.0" rx="10.0" fill="#ffffff" stroke="#d1d5db" stroke-width="1.8" filter="url(#shadowSoft)"/>
  <text x="570.0" y="505.0" text-anchor="middle" class="node-title">外部系统连接器</text>
  <line x1="42.0" y1="558.0" x2="72.0" y2="558.0" stroke="#7c3aed" stroke-width="2.4" marker-end="url(#arrowA)"/>
  <text x="82.0" y="562.0" class="legend">控制/交互</text>
  <line x1="42.0" y1="580.0" x2="72.0" y2="580.0" stroke="#2563eb" stroke-width="2.4" marker-end="url(#arrowC)"/>
  <text x="82.0" y="584.0" class="legend">领域读取</text>
  <line x1="42.0" y1="602.0" x2="72.0" y2="602.0" stroke="#10b981" stroke-width="2.4" marker-end="url(#arrowB)"/>
  <text x="82.0" y="606.0" class="legend">持久化存储</text>
  <line x1="42.0" y1="624.0" x2="72.0" y2="624.0" stroke="#7c3aed" stroke-width="2.4" marker-end="url(#arrowA)"/>
  <text x="82.0" y="628.0" class="legend">异步任务</text>
</svg>