<svg xmlns="http://www.w3.org/2000/svg" viewBox="0 0 960 600" width="960" height="600">
  <defs>
    <marker id="arrowA" markerWidth="10" markerHeight="7" refX="9" refY="3.5" orient="auto">
      <polygon points="0 0, 10 3.5, 0 7" fill="#7c3aed"/>
    </marker>
    <marker id="arrowB" markerWidth="10" markerHeight="7" refX="9" refY="3.5" orient="auto">
      <polygon points="0 0, 10 3.5, 0 7" fill="#10b981"/>
    </marker>
    <marker id="arrowC" markerWidth="10" markerHeight="7" refX="9" refY="3.5" orient="auto">
      <polygon points="0 0, 10 3.5, 0 7" fill="#2563eb"/>
    </marker>
    <marker id="arrowE" markerWidth="10" markerHeight="7" refX="9" refY="3.5" orient="auto">
      <polygon points="0 0, 10 3.5, 0 7" fill="#f97316"/>
    </marker>
    <marker id="arrowF" markerWidth="10" markerHeight="7" refX="9" refY="3.5" orient="auto">
      <polygon points="0 0, 10 3.5, 0 7" fill="#7c3aed"/>
    </marker>
    <marker id="arrowG" markerWidth="10" markerHeight="7" refX="9" refY="3.5" orient="auto">
      <polygon points="0 0, 10 3.5, 0 7" fill="#ef4444"/>
    </marker>
    <marker id="arrowH" markerWidth="10" markerHeight="7" refX="9" refY="3.5" orient="auto">
      <polygon points="0 0, 10 3.5, 0 7" fill="#6b7280"/>
    </marker>
    <filter id="shadowSoft" x="-20%" y="-20%" width="140%" height="160%">
      <feDropShadow dx="0" dy="3" stdDeviation="6" flood-color="#0f172a" flood-opacity="0.12"/>
    </filter>
    <filter id="shadowGlass" x="-20%" y="-20%" width="140%" height="160%">
      <feDropShadow dx="0" dy="10" stdDeviation="16" flood-color="#020617" flood-opacity="0.28"/>
    </filter>
    <style>
    text { font-family: 'Noto Sans SC', 'Helvetica Neue', Helvetica, Arial, 'Microsoft YaHei', sans-serif; }
    .title { font-size: 30px; font-weight: 700; fill: #111827; }
    .subtitle { font-size: 14px; font-weight: 500; fill: #6b7280; }
    .section { font-size: 13px; font-weight: 700; fill: #2563eb; letter-spacing: 1.4px; }
    .section-sub { font-size: 12px; font-weight: 500; fill: #94a3b8; }
    .node-title { font-size: 15px; font-weight: 700; fill: #111827; }
    .node-sub { font-size: 12px; font-weight: 500; fill: #6b7280; }
    .node-type { font-size: 12px; font-weight: 700; fill: #9ca3af; letter-spacing: 0.08em; }
    .arrow-label { font-size: 12px; font-weight: 600; fill: #6b7280; }
    .legend { font-size: 12px; font-weight: 500; fill: #6b7280; }
    .footnote { font-size: 12px; font-weight: 500; fill: #94a3b8; }
    </style>
  </defs>
  <rect width="960.0" height="600.0" fill="#ffffff"/>
  <text x="480.0" y="56" text-anchor="middle" class="title">ADAM 系统上下文</text>
  <path d="M 120.0,190.0 L 320.0,285.0" fill="none" stroke="#7c3aed" stroke-width="2.4" marker-end="url(#arrowA)"/>
  <path d="M 200.0,285.0 L 320.0,285.0" fill="none" stroke="#7c3aed" stroke-width="2.4" marker-end="url(#arrowA)"/>
  <path d="M 120.0,400.0 L 320.0,285.0" fill="none" stroke="#7c3aed" stroke-width="2.4" marker-end="url(#arrowA)"/>
  <path d="M 290.0,420.0 L 400.0,330.0" fill="none" stroke="#7c3aed" stroke-width="2.4" marker-end="url(#arrowA)"/>
  <path d="M 470.0,420.0 L 400.0,330.0" fill="none" stroke="#7c3aed" stroke-width="2.4" marker-end="url(#arrowA)"/>
  <path d="M 640.0,420.0 L 400.0,330.0" fill="none" stroke="#7c3aed" stroke-width="2.4" marker-end="url(#arrowA)"/>
  <path d="M 320.0,285.0 L 120.0,400.0" fill="none" stroke="#f97316" stroke-width="2.4" marker-end="url(#arrowE)"/>
  <path d="M 400.0,330.0 L 290.0,420.0" fill="none" stroke="#f97316" stroke-width="2.4" marker-end="url(#arrowE)"/>
  <path d="M 400.0,330.0 L 470.0,420.0" fill="none" stroke="#f97316" stroke-width="2.4" marker-end="url(#arrowE)"/>
  <path d="M 400.0,330.0 L 640.0,420.0" fill="none" stroke="#f97316" stroke-width="2.4" marker-end="url(#arrowE)"/>
  <path d="M 480.0,285.0 L 680.0,220.0" fill="none" stroke="#10b981" stroke-width="2.4" marker-end="url(#arrowB)"/>
  <path d="M 480.0,285.0 L 680.0,330.0" fill="none" stroke="#7c3aed" stroke-width="2.4" marker-end="url(#arrowA)"/>
  <rect x="60.0" y="140.0" width="120.0" height="50.0" rx="10.0" fill="#ffffff" stroke="#d1d5db" stroke-width="1.8" filter="url(#shadowSoft)"/>
  <text x="120.0" y="165.0" text-anchor="middle" class="node-title">研发人员</text>
  <rect x="60.0" y="260.0" width="140.0" height="50.0" rx="10.0" fill="#ffffff" stroke="#d1d5db" stroke-width="1.8" filter="url(#shadowSoft)"/>
  <text x="130.0" y="285.0" text-anchor="middle" class="node-title">AI Agent / MCP</text>
  <rect x="60.0" y="400.0" width="120.0" height="50.0" rx="10.0" fill="#ffffff" stroke="#d1d5db" stroke-width="1.8" filter="url(#shadowSoft)"/>
  <text x="120.0" y="425.0" text-anchor="middle" class="node-title">Git 平台</text>
  <rect x="220.0" y="420.0" width="140.0" height="50.0" rx="10.0" fill="#ffffff" stroke="#d1d5db" stroke-width="1.8" filter="url(#shadowSoft)"/>
  <text x="290.0" y="445.0" text-anchor="middle" class="node-title">Wiki / 文档系统</text>
  <rect x="400.0" y="420.0" width="140.0" height="50.0" rx="10.0" fill="#ffffff" stroke="#d1d5db" stroke-width="1.8" filter="url(#shadowSoft)"/>
  <text x="470.0" y="445.0" text-anchor="middle" class="node-title">项目管理系统</text>
  <rect x="580.0" y="420.0" width="120.0" height="50.0" rx="10.0" fill="#ffffff" stroke="#d1d5db" stroke-width="1.8" filter="url(#shadowSoft)"/>
  <text x="640.0" y="445.0" text-anchor="middle" class="node-title">CI/CD 系统</text>
  <rect x="320.0" y="240.0" width="160.0" height="90.0" rx="10.0" fill="#ffffff" stroke="#d1d5db" stroke-width="2.0" filter="url(#shadowSoft)"/>
  <rect x="326.0" y="246.0" width="148.0" height="78.0" rx="7.0" fill="none" stroke="#d1d5db" stroke-width="1.2" opacity="0.65"/>
  <text x="400.0" y="285.0" text-anchor="middle" class="node-title">ADAM</text>
  <ellipse cx="745.0" cy="190.0" rx="32.5" ry="10.0" fill="#ecfdf5" stroke="#10b981" stroke-width="2.2"/>
  <rect x="680.0" y="190.0" width="130.0" height="60.0" fill="#ecfdf5" stroke="#10b981" stroke-width="2.2"/>
  <ellipse cx="745.0" cy="250.0" rx="32.5" ry="10.0" fill="#ecfdf5" stroke="#10b981" stroke-width="2.2"/>
  <ellipse cx="745.0" cy="210.4" rx="32.5" ry="10.0" fill="none" stroke="#10b981" stroke-opacity="0.45" stroke-width="1.2"/>
  <ellipse cx="745.0" cy="228.0" rx="32.5" ry="10.0" fill="none" stroke="#10b981" stroke-opacity="0.25" stroke-width="1.2"/>
  <text x="745.0" y="214.0" text-anchor="middle" class="node-title">PostgreSQL</text>
  <rect x="680.0" y="300.0" width="150.0" height="60.0" rx="10.0" fill="#ffffff" stroke="#d1d5db" stroke-width="1.8" filter="url(#shadowSoft)"/>
  <text x="755.0" y="330.0" text-anchor="middle" class="node-title">异步 Worker / 调度器</text>
  <line x1="42.0" y1="478.0" x2="72.0" y2="478.0" stroke="#7c3aed" stroke-width="2.4" marker-end="url(#arrowA)"/>
  <text x="82.0" y="482.0" class="legend">控制/交互</text>
  <line x1="42.0" y1="500.0" x2="72.0" y2="500.0" stroke="#f97316" stroke-width="2.4" marker-end="url(#arrowE)"/>
  <text x="82.0" y="504.0" class="legend">数据读写</text>
  <line x1="42.0" y1="522.0" x2="72.0" y2="522.0" stroke="#10b981" stroke-width="2.4" marker-end="url(#arrowB)"/>
  <text x="82.0" y="526.0" class="legend">持久化存储</text>
  <line x1="42.0" y1="544.0" x2="72.0" y2="544.0" stroke="#7c3aed" stroke-width="2.4" marker-end="url(#arrowA)"/>
  <text x="82.0" y="548.0" class="legend">异步任务</text>
</svg>