<svg xmlns="http://www.w3.org/2000/svg" viewBox="0 0 960 640" width="960" height="640">
  <defs>
    <marker id="arrowA" markerWidth="10" markerHeight="7" refX="9" refY="3.5" orient="auto">
      <polygon points="0 0, 10 3.5, 0 7" fill="#7c3aed"/>
    </marker>
    <marker id="arrowB" markerWidth="10" markerHeight="7" refX="9" refY="3.5" orient="auto">
      <polygon points="0 0, 10 3.5, 0 7" fill="#10b981"/>
    </marker>
    <marker id="arrowC" markerWidth="10" markerHeight="7" refX="9" refY="3.5" orient="auto">
      <polygon points="0 0, 10 3.5, 0 7" fill="#2563eb"/>
    </marker>
    <marker id="arrowE" markerWidth="10" markerHeight="7" refX="9" refY="3.5" orient="auto">
      <polygon points="0 0, 10 3.5, 0 7" fill="#f97316"/>
    </marker>
    <marker id="arrowF" markerWidth="10" markerHeight="7" refX="9" refY="3.5" orient="auto">
      <polygon points="0 0, 10 3.5, 0 7" fill="#7c3aed"/>
    </marker>
    <marker id="arrowG" markerWidth="10" markerHeight="7" refX="9" refY="3.5" orient="auto">
      <polygon points="0 0, 10 3.5, 0 7" fill="#ef4444"/>
    </marker>
    <marker id="arrowH" markerWidth="10" markerHeight="7" refX="9" refY="3.5" orient="auto">
      <polygon points="0 0, 10 3.5, 0 7" fill="#6b7280"/>
    </marker>
    <filter id="shadowSoft" x="-20%" y="-20%" width="140%" height="160%">
      <feDropShadow dx="0" dy="3" stdDeviation="6" flood-color="#0f172a" flood-opacity="0.12"/>
    </filter>
    <filter id="shadowGlass" x="-20%" y="-20%" width="140%" height="160%">
      <feDropShadow dx="0" dy="10" stdDeviation="16" flood-color="#020617" flood-opacity="0.28"/>
    </filter>
    <style>
    text { font-family: 'Noto Sans SC', 'Helvetica Neue', Helvetica, Arial, 'Microsoft YaHei', sans-serif; }
    .title { font-size: 30px; font-weight: 700; fill: #111827; }
    .subtitle { font-size: 14px; font-weight: 500; fill: #6b7280; }
    .section { font-size: 13px; font-weight: 700; fill: #2563eb; letter-spacing: 1.4px; }
    .section-sub { font-size: 12px; font-weight: 500; fill: #94a3b8; }
    .node-title { font-size: 15px; font-weight: 700; fill: #111827; }
    .node-sub { font-size: 12px; font-weight: 500; fill: #6b7280; }
    .node-type { font-size: 12px; font-weight: 700; fill: #9ca3af; letter-spacing: 0.08em; }
    .arrow-label { font-size: 12px; font-weight: 600; fill: #6b7280; }
    .legend { font-size: 12px; font-weight: 500; fill: #6b7280; }
    .footnote { font-size: 12px; font-weight: 500; fill: #94a3b8; }
    </style>
  </defs>
  <rect width="960.0" height="640.0" fill="#ffffff"/>
  <text x="480.0" y="56" text-anchor="middle" class="title">失败、补偿与死信</text>
  <path d="M 340.0,185.0 L 420.0,192.5" fill="none" stroke="#7c3aed" stroke-width="2.4" marker-end="url(#arrowA)"/>
  <path d="M 580.0,192.5 L 640.0,152.5" fill="none" stroke="#7c3aed" stroke-width="2.4" marker-end="url(#arrowA)"/>
  <path d="M 500.0,225.0 L 500.0,300.0" fill="none" stroke="#7c3aed" stroke-width="2.4" marker-end="url(#arrowA)"/>
  <path d="M 580.0,332.5 L 640.0,325.0" fill="none" stroke="#7c3aed" stroke-width="2.4" marker-end="url(#arrowA)"/>
  <path d="M 500.0,365.0 L 500.0,440.0" fill="none" stroke="#7c3aed" stroke-width="2.4" marker-end="url(#arrowA)"/>
  <path d="M 580.0,472.5 L 640.0,465.0" fill="none" stroke="#7c3aed" stroke-width="2.4" marker-end="url(#arrowA)"/>
  <path d="M 420.0,472.5 L 380.0,472.5" fill="none" stroke="#7c3aed" stroke-width="2.4" marker-end="url(#arrowA)"/>
  <path d="M 290.0,505.0 L 290.0,560.0" fill="none" stroke="#7c3aed" stroke-width="2.4" marker-end="url(#arrowA)"/>
  <rect x="200.0" y="160.0" width="140.0" height="50.0" rx="10.0" fill="#ffffff" stroke="#d1d5db" stroke-width="1.8" filter="url(#shadowSoft)"/>
  <text x="270.0" y="185.0" text-anchor="middle" class="node-title">动作失败</text>
  <path d="M 442.0 160.0 L 558.0 160.0 L 580.0 192.5 L 558.0 225.0 L 442.0 225.0 L 420.0 192.5 Z" fill="#ffffff" stroke="#d1d5db" stroke-width="2.0" filter="url(#shadowSoft)"/>
  <text x="500.0" y="192.5" text-anchor="middle" class="node-title">还有重试预算？</text>
  <rect x="640.0" y="120.0" width="180.0" height="65.0" rx="10.0" fill="#ffffff" stroke="#d1d5db" stroke-width="1.8" filter="url(#shadowSoft)"/>
  <text x="730.0" y="144.0" text-anchor="middle" class="node-title">
    <tspan x="730.0" dy="0">回到 Pending</tspan>
    <tspan x="730.0" dy="17">等待 next_retry_at</tspan>
  </text>
  <path d="M 442.0 300.0 L 558.0 300.0 L 580.0 332.5 L 558.0 365.0 L 442.0 365.0 L 420.0 332.5 Z" fill="#ffffff" stroke="#d1d5db" stroke-width="2.0" filter="url(#shadowSoft)"/>
  <text x="500.0" y="332.5" text-anchor="middle" class="node-title">已有外部副作用？</text>
  <rect x="640.0" y="300.0" width="140.0" height="50.0" rx="10.0" fill="#ffffff" stroke="#d1d5db" stroke-width="1.8" filter="url(#shadowSoft)"/>
  <text x="710.0" y="325.0" text-anchor="middle" class="node-title">动作 Failed</text>
  <path d="M 442.0 440.0 L 558.0 440.0 L 580.0 472.5 L 558.0 505.0 L 442.0 505.0 L 420.0 472.5 Z" fill="#ffffff" stroke="#d1d5db" stroke-width="2.0" filter="url(#shadowSoft)"/>
  <text x="500.0" y="472.5" text-anchor="middle" class="node-title">有补偿策略？</text>
  <rect x="640.0" y="440.0" width="160.0" height="50.0" rx="10.0" fill="#ffffff" stroke="#d1d5db" stroke-width="1.8" filter="url(#shadowSoft)"/>
  <text x="720.0" y="465.0" text-anchor="middle" class="node-title">创建补偿动作</text>
  <rect x="200.0" y="440.0" width="180.0" height="65.0" rx="10.0" fill="#ffffff" stroke="#d1d5db" stroke-width="1.8" filter="url(#shadowSoft)"/>
  <text x="290.0" y="464.0" text-anchor="middle" class="node-title">
    <tspan x="290.0" dy="0">Blocked:</tspan>
    <tspan x="290.0" dy="17">WaitingManualIntervention</tspan>
  </text>
  <rect x="200.0" y="560.0" width="180.0" height="50.0" rx="10.0" fill="#ffffff" stroke="#d1d5db" stroke-width="1.8" filter="url(#shadowSoft)"/>
  <text x="290.0" y="585.0" text-anchor="middle" class="node-title">workflow_dead_letters</text>
  <rect x="592.0" y="142.5" width="36" height="20" rx="6" fill="#ffffff" opacity="0.94"/>
  <text x="610.0" y="156.5" text-anchor="middle" class="arrow-label">是</text>
  <rect x="464.0" y="248.5" width="36" height="20" rx="6" fill="#ffffff" opacity="0.94"/>
  <text x="482.0" y="262.5" text-anchor="middle" class="arrow-label">否</text>
  <rect x="592.0" y="298.75" width="36" height="20" rx="6" fill="#ffffff" opacity="0.94"/>
  <text x="610.0" y="312.75" text-anchor="middle" class="arrow-label">否</text>
  <rect x="464.0" y="388.5" width="36" height="20" rx="6" fill="#ffffff" opacity="0.94"/>
  <text x="482.0" y="402.5" text-anchor="middle" class="arrow-label">是</text>
  <rect x="592.0" y="438.75" width="36" height="20" rx="6" fill="#ffffff" opacity="0.94"/>
  <text x="610.0" y="452.75" text-anchor="middle" class="arrow-label">有</text>
  <rect x="382.0" y="458.5" width="36" height="20" rx="6" fill="#ffffff" opacity="0.94"/>
  <text x="400.0" y="472.5" text-anchor="middle" class="arrow-label">无</text>
</svg>