<svg xmlns="http://www.w3.org/2000/svg" viewBox="0 0 960 680" width="960" height="680">
  <defs>
    <marker id="arrowA" markerWidth="10" markerHeight="7" refX="9" refY="3.5" orient="auto">
      <polygon points="0 0, 10 3.5, 0 7" fill="#7c3aed"/>
    </marker>
    <marker id="arrowB" markerWidth="10" markerHeight="7" refX="9" refY="3.5" orient="auto">
      <polygon points="0 0, 10 3.5, 0 7" fill="#10b981"/>
    </marker>
    <marker id="arrowC" markerWidth="10" markerHeight="7" refX="9" refY="3.5" orient="auto">
      <polygon points="0 0, 10 3.5, 0 7" fill="#2563eb"/>
    </marker>
    <marker id="arrowE" markerWidth="10" markerHeight="7" refX="9" refY="3.5" orient="auto">
      <polygon points="0 0, 10 3.5, 0 7" fill="#f97316"/>
    </marker>
    <marker id="arrowF" markerWidth="10" markerHeight="7" refX="9" refY="3.5" orient="auto">
      <polygon points="0 0, 10 3.5, 0 7" fill="#7c3aed"/>
    </marker>
    <marker id="arrowG" markerWidth="10" markerHeight="7" refX="9" refY="3.5" orient="auto">
      <polygon points="0 0, 10 3.5, 0 7" fill="#ef4444"/>
    </marker>
    <marker id="arrowH" markerWidth="10" markerHeight="7" refX="9" refY="3.5" orient="auto">
      <polygon points="0 0, 10 3.5, 0 7" fill="#6b7280"/>
    </marker>
    <filter id="shadowSoft" x="-20%" y="-20%" width="140%" height="160%">
      <feDropShadow dx="0" dy="3" stdDeviation="6" flood-color="#0f172a" flood-opacity="0.12"/>
    </filter>
    <filter id="shadowGlass" x="-20%" y="-20%" width="140%" height="160%">
      <feDropShadow dx="0" dy="10" stdDeviation="16" flood-color="#020617" flood-opacity="0.28"/>
    </filter>
    <style>
    text { font-family: 'Noto Sans SC', 'Helvetica Neue', Helvetica, Arial, 'Microsoft YaHei', sans-serif; }
    .title { font-size: 30px; font-weight: 700; fill: #111827; }
    .subtitle { font-size: 14px; font-weight: 500; fill: #6b7280; }
    .section { font-size: 13px; font-weight: 700; fill: #2563eb; letter-spacing: 1.4px; }
    .section-sub { font-size: 12px; font-weight: 500; fill: #94a3b8; }
    .node-title { font-size: 15px; font-weight: 700; fill: #111827; }
    .node-sub { font-size: 12px; font-weight: 500; fill: #6b7280; }
    .node-type { font-size: 12px; font-weight: 700; fill: #9ca3af; letter-spacing: 0.08em; }
    .arrow-label { font-size: 12px; font-weight: 600; fill: #6b7280; }
    .legend { font-size: 12px; font-weight: 500; fill: #6b7280; }
    .footnote { font-size: 12px; font-weight: 500; fill: #94a3b8; }
    </style>
  </defs>
  <rect width="960.0" height="680.0" fill="#ffffff"/>
  <text x="480.0" y="56" text-anchor="middle" class="title">事件驱动闭环</text>
  <path d="M 280.0,192.5 L 360.0,192.5" fill="none" stroke="#7c3aed" stroke-width="2.4" marker-end="url(#arrowA)"/>
  <path d="M 520.0,192.5 L 600.0,192.5" fill="none" stroke="#7c3aed" stroke-width="2.4" marker-end="url(#arrowA)"/>
  <path d="M 680.0,225.0 L 460.0,300.0" fill="none" stroke="#7c3aed" stroke-width="2.4" marker-end="url(#arrowA)"/>
  <path d="M 460.0,365.0 L 280.0,420.0" fill="none" stroke="#7c3aed" stroke-width="2.4" marker-end="url(#arrowA)"/>
  <path d="M 460.0,365.0 L 480.0,420.0" fill="none" stroke="#7c3aed" stroke-width="2.4" marker-end="url(#arrowA)"/>
  <path d="M 460.0,365.0 L 680.0,420.0" fill="none" stroke="#7c3aed" stroke-width="2.4" marker-end="url(#arrowA)"/>
  <path d="M 280.0,485.0 L 480.0,540.0" fill="none" stroke="#f97316" stroke-width="2.4" marker-end="url(#arrowE)"/>
  <path d="M 480.0,485.0 L 480.0,540.0" fill="none" stroke="#f97316" stroke-width="2.4" marker-end="url(#arrowE)"/>
  <path d="M 680.0,475.0 L 480.0,540.0" fill="none" stroke="#f97316" stroke-width="2.4" marker-end="url(#arrowE)"/>
  <path d="M 480.0,590.0 L 480.0,620.0" fill="none" stroke="#7c3aed" stroke-width="2.4" marker-end="url(#arrowA)"/>
  <rect x="120.0" y="160.0" width="160.0" height="65.0" rx="10.0" fill="#ffffff" stroke="#d1d5db" stroke-width="1.8" filter="url(#shadowSoft)"/>
  <text x="200.0" y="184.0" text-anchor="middle" class="node-title">
    <tspan x="200.0" dy="0">WorkflowEvent</tspan>
    <tspan x="200.0" dy="17">资产或外部事件</tspan>
  </text>
  <rect x="360.0" y="160.0" width="160.0" height="65.0" rx="10.0" fill="#ffffff" stroke="#d1d5db" stroke-width="1.8" filter="url(#shadowSoft)"/>
  <text x="440.0" y="184.0" text-anchor="middle" class="node-title">
    <tspan x="440.0" dy="0">PromotionRule</tspan>
    <tspan x="440.0" dy="17">规则匹配</tspan>
  </text>
  <rect x="600.0" y="160.0" width="160.0" height="65.0" rx="10.0" fill="#ffffff" stroke="#d1d5db" stroke-width="1.8" filter="url(#shadowSoft)"/>
  <text x="680.0" y="184.0" text-anchor="middle" class="node-title">
    <tspan x="680.0" dy="0">WorkflowAction</tspan>
    <tspan x="680.0" dy="17">流程动作</tspan>
  </text>
  <path d="M 402.0 300.0 L 518.0 300.0 L 540.0 332.5 L 518.0 365.0 L 402.0 365.0 L 380.0 332.5 Z" fill="#ffffff" stroke="#d1d5db" stroke-width="2.0" filter="url(#shadowSoft)"/>
  <text x="460.0" y="332.5" text-anchor="middle" class="node-title">执行方式</text>
  <rect x="200.0" y="420.0" width="160.0" height="65.0" rx="10.0" fill="#ffffff" stroke="#d1d5db" stroke-width="1.8" filter="url(#shadowSoft)"/>
  <text x="280.0" y="444.0" text-anchor="middle" class="node-title">
    <tspan x="280.0" dy="0">AgentTask</tspan>
    <tspan x="280.0" dy="17">AI Agent 领取执行</tspan>
  </text>
  <rect x="400.0" y="420.0" width="160.0" height="65.0" rx="10.0" fill="#ffffff" stroke="#d1d5db" stroke-width="1.8" filter="url(#shadowSoft)"/>
  <text x="480.0" y="444.0" text-anchor="middle" class="node-title">
    <tspan x="480.0" dy="0">ApprovalGate</tspan>
    <tspan x="480.0" dy="17">人工审批</tspan>
  </text>
  <rect x="600.0" y="420.0" width="160.0" height="55.0" rx="10.0" fill="#ffffff" stroke="#d1d5db" stroke-width="1.8" filter="url(#shadowSoft)"/>
  <text x="680.0" y="447.5" text-anchor="middle" class="node-title">外部系统命令</text>
  <rect x="400.0" y="540.0" width="160.0" height="50.0" rx="10.0" fill="#ffffff" stroke="#d1d5db" stroke-width="1.8" filter="url(#shadowSoft)"/>
  <text x="480.0" y="565.0" text-anchor="middle" class="node-title">结果 / 产出资产</text>
  <rect x="400.0" y="620.0" width="160.0" height="50.0" rx="10.0" fill="#ffffff" stroke="#d1d5db" stroke-width="1.8" filter="url(#shadowSoft)"/>
  <text x="480.0" y="645.0" text-anchor="middle" class="node-title">发布或更新资产</text>
</svg>