<svg xmlns="http://www.w3.org/2000/svg" viewBox="0 0 960 720" width="960" height="720">
  <defs>
    <marker id="arrowA" markerWidth="10" markerHeight="7" refX="9" refY="3.5" orient="auto">
      <polygon points="0 0, 10 3.5, 0 7" fill="#7c3aed"/>
    </marker>
    <marker id="arrowB" markerWidth="10" markerHeight="7" refX="9" refY="3.5" orient="auto">
      <polygon points="0 0, 10 3.5, 0 7" fill="#10b981"/>
    </marker>
    <marker id="arrowC" markerWidth="10" markerHeight="7" refX="9" refY="3.5" orient="auto">
      <polygon points="0 0, 10 3.5, 0 7" fill="#2563eb"/>
    </marker>
    <marker id="arrowE" markerWidth="10" markerHeight="7" refX="9" refY="3.5" orient="auto">
      <polygon points="0 0, 10 3.5, 0 7" fill="#f97316"/>
    </marker>
    <marker id="arrowF" markerWidth="10" markerHeight="7" refX="9" refY="3.5" orient="auto">
      <polygon points="0 0, 10 3.5, 0 7" fill="#7c3aed"/>
    </marker>
    <marker id="arrowG" markerWidth="10" markerHeight="7" refX="9" refY="3.5" orient="auto">
      <polygon points="0 0, 10 3.5, 0 7" fill="#ef4444"/>
    </marker>
    <marker id="arrowH" markerWidth="10" markerHeight="7" refX="9" refY="3.5" orient="auto">
      <polygon points="0 0, 10 3.5, 0 7" fill="#6b7280"/>
    </marker>
    <filter id="shadowSoft" x="-20%" y="-20%" width="140%" height="160%">
      <feDropShadow dx="0" dy="3" stdDeviation="6" flood-color="#0f172a" flood-opacity="0.12"/>
    </filter>
    <filter id="shadowGlass" x="-20%" y="-20%" width="140%" height="160%">
      <feDropShadow dx="0" dy="10" stdDeviation="16" flood-color="#020617" flood-opacity="0.28"/>
    </filter>
    <style>
    text { font-family: 'Noto Sans SC', 'Helvetica Neue', Helvetica, Arial, 'Microsoft YaHei', sans-serif; }
    .title { font-size: 30px; font-weight: 700; fill: #111827; }
    .subtitle { font-size: 14px; font-weight: 500; fill: #6b7280; }
    .section { font-size: 13px; font-weight: 700; fill: #2563eb; letter-spacing: 1.4px; }
    .section-sub { font-size: 12px; font-weight: 500; fill: #94a3b8; }
    .node-title { font-size: 15px; font-weight: 700; fill: #111827; }
    .node-sub { font-size: 12px; font-weight: 500; fill: #6b7280; }
    .node-type { font-size: 12px; font-weight: 700; fill: #9ca3af; letter-spacing: 0.08em; }
    .arrow-label { font-size: 12px; font-weight: 600; fill: #6b7280; }
    .legend { font-size: 12px; font-weight: 500; fill: #6b7280; }
    .footnote { font-size: 12px; font-weight: 500; fill: #94a3b8; }
    </style>
  </defs>
  <rect width="960.0" height="720.0" fill="#ffffff"/>
  <text x="480.0" y="56" text-anchor="middle" class="title">Dirty 资产到人工审查</text>
  <path d="M 480.0,150.0 L 480.0,200.0" fill="none" stroke="#10b981" stroke-width="2.4" marker-end="url(#arrowB)"/>
  <path d="M 480.0,260.0 L 480.0,310.0" fill="none" stroke="#7c3aed" stroke-width="2.4" marker-end="url(#arrowA)"/>
  <path d="M 480.0,360.0 L 480.0,410.0" fill="none" stroke="#7c3aed" stroke-width="2.4" marker-end="url(#arrowA)"/>
  <path d="M 480.0,460.0 L 480.0,510.0" fill="none" stroke="#7c3aed" stroke-width="2.4" marker-end="url(#arrowA)"/>
  <path d="M 480.0,510.0 L 480.0,460.0" fill="none" stroke="#7c3aed" stroke-width="2.4" marker-end="url(#arrowA)"/>
  <path d="M 480.0,460.0 L 316.0,460.0 L 316.0,610.0 L 480.0,610.0" fill="none" stroke="#10b981" stroke-width="2.4" marker-end="url(#arrowB)"/>
  <rect x="340.0" y="100.0" width="280.0" height="50.0" rx="10.0" fill="#ffffff" stroke="#d1d5db" stroke-width="1.8" filter="url(#shadowSoft)"/>
  <text x="480.0" y="125.0" text-anchor="middle" class="node-title">状态传播服务</text>
  <rect x="340.0" y="200.0" width="280.0" height="60.0" rx="10.0" fill="#ffffff" stroke="#d1d5db" stroke-width="1.8" filter="url(#shadowSoft)"/>
  <text x="480.0" y="221.5" text-anchor="middle" class="node-title">
    <tspan x="480.0" dy="0">WorkflowEvent</tspan>
    <tspan x="480.0" dy="17">记录 AssetMarkedDirty</tspan>
  </text>
  <rect x="340.0" y="310.0" width="280.0" height="50.0" rx="10.0" fill="#ffffff" stroke="#d1d5db" stroke-width="1.8" filter="url(#shadowSoft)"/>
  <text x="480.0" y="335.0" text-anchor="middle" class="node-title">PromotionRuleEvaluator</text>
  <rect x="340.0" y="410.0" width="280.0" height="50.0" rx="10.0" fill="#ffffff" stroke="#d1d5db" stroke-width="1.8" filter="url(#shadowSoft)"/>
  <text x="480.0" y="435.0" text-anchor="middle" class="node-title">ApprovalGate</text>
  <rect x="340.0" y="510.0" width="280.0" height="50.0" rx="10.0" fill="#ffffff" stroke="#d1d5db" stroke-width="1.8" filter="url(#shadowSoft)"/>
  <text x="480.0" y="535.0" text-anchor="middle" class="node-title">审查人</text>
  <rect x="340.0" y="610.0" width="280.0" height="60.0" rx="10.0" fill="#ffffff" stroke="#d1d5db" stroke-width="1.8" filter="url(#shadowSoft)"/>
  <text x="480.0" y="631.5" text-anchor="middle" class="node-title">
    <tspan x="480.0" dy="0">WorkflowEvent</tspan>
    <tspan x="480.0" dy="17">HumanApprovalGranted 或 Rejected</tspan>
  </text>
  <rect x="400.0" y="161.0" width="124" height="20" rx="6" fill="#ffffff" opacity="0.94"/>
  <text x="462.0" y="175.0" text-anchor="middle" class="arrow-label">记录 AssetMarkedDirty</text>
  <rect x="385.0" y="271.0" width="154" height="20" rx="6" fill="#ffffff" opacity="0.94"/>
  <text x="462.0" y="285.0" text-anchor="middle" class="arrow-label">匹配 review_dirty_asset 规则</text>
  <rect x="424.0" y="371.0" width="76" height="20" rx="6" fill="#ffffff" opacity="0.94"/>
  <text x="462.0" y="385.0" text-anchor="middle" class="arrow-label">创建人工审批/审查门禁</text>
  <rect x="444.0" y="471.0" width="36" height="20" rx="6" fill="#ffffff" opacity="0.94"/>
  <text x="462.0" y="485.0" text-anchor="middle" class="arrow-label">等待审查</text>
  <rect x="460.0" y="471.0" width="40" height="20" rx="6" fill="#ffffff" opacity="0.94"/>
  <text x="480.0" y="485.0" text-anchor="middle" class="arrow-label">审查并决定</text>
  <rect x="380.0" y="462.0" width="36" height="20" rx="6" fill="#ffffff" opacity="0.94"/>
  <text x="398.0" y="476.0" text-anchor="middle" class="arrow-label">审批结果</text>
</svg>