<svg xmlns="http://www.w3.org/2000/svg" viewBox="0 0 1400 560" width="1400" height="560">
  <defs>
    <marker id="arrowA" markerWidth="10" markerHeight="7" refX="9" refY="3.5" orient="auto">
      <polygon points="0 0, 10 3.5, 0 7" fill="#7c3aed"/>
    </marker>
    <marker id="arrowB" markerWidth="10" markerHeight="7" refX="9" refY="3.5" orient="auto">
      <polygon points="0 0, 10 3.5, 0 7" fill="#10b981"/>
    </marker>
    <marker id="arrowC" markerWidth="10" markerHeight="7" refX="9" refY="3.5" orient="auto">
      <polygon points="0 0, 10 3.5, 0 7" fill="#2563eb"/>
    </marker>
    <marker id="arrowE" markerWidth="10" markerHeight="7" refX="9" refY="3.5" orient="auto">
      <polygon points="0 0, 10 3.5, 0 7" fill="#f97316"/>
    </marker>
    <marker id="arrowF" markerWidth="10" markerHeight="7" refX="9" refY="3.5" orient="auto">
      <polygon points="0 0, 10 3.5, 0 7" fill="#7c3aed"/>
    </marker>
    <marker id="arrowG" markerWidth="10" markerHeight="7" refX="9" refY="3.5" orient="auto">
      <polygon points="0 0, 10 3.5, 0 7" fill="#ef4444"/>
    </marker>
    <marker id="arrowH" markerWidth="10" markerHeight="7" refX="9" refY="3.5" orient="auto">
      <polygon points="0 0, 10 3.5, 0 7" fill="#6b7280"/>
    </marker>
    <filter id="shadowSoft" x="-20%" y="-20%" width="140%" height="160%">
      <feDropShadow dx="0" dy="3" stdDeviation="6" flood-color="#0f172a" flood-opacity="0.12"/>
    </filter>
    <filter id="shadowGlass" x="-20%" y="-20%" width="140%" height="160%">
      <feDropShadow dx="0" dy="10" stdDeviation="16" flood-color="#020617" flood-opacity="0.28"/>
    </filter>
    <style>
    text { font-family: 'Noto Sans SC', 'Helvetica Neue', Helvetica, Arial, 'Microsoft YaHei', sans-serif; }
    .title { font-size: 30px; font-weight: 700; fill: #111827; }
    .subtitle { font-size: 14px; font-weight: 500; fill: #6b7280; }
    .section { font-size: 13px; font-weight: 700; fill: #2563eb; letter-spacing: 1.4px; }
    .section-sub { font-size: 12px; font-weight: 500; fill: #94a3b8; }
    .node-title { font-size: 15px; font-weight: 700; fill: #111827; }
    .node-sub { font-size: 12px; font-weight: 500; fill: #6b7280; }
    .node-type { font-size: 12px; font-weight: 700; fill: #9ca3af; letter-spacing: 0.08em; }
    .arrow-label { font-size: 12px; font-weight: 600; fill: #6b7280; }
    .legend { font-size: 12px; font-weight: 500; fill: #6b7280; }
    .footnote { font-size: 12px; font-weight: 500; fill: #94a3b8; }
    </style>
  </defs>
  <rect width="1400.0" height="560.0" fill="#ffffff"/>
  <text x="700.0" y="56" text-anchor="middle" class="title">需求发布到功能工作</text>
  <path d="M 220.0,145.0 L 340.0,145.0" fill="none" stroke="#7c3aed" stroke-width="2.4" marker-end="url(#arrowA)"/>
  <path d="M 480.0,145.0 L 600.0,145.0" fill="none" stroke="#10b981" stroke-width="2.4" marker-end="url(#arrowB)"/>
  <path d="M 730.0,145.0 L 860.0,145.0" fill="none" stroke="#7c3aed" stroke-width="2.4" marker-end="url(#arrowA)"/>
  <path d="M 955.0,170.0 L 945.0,280.0" fill="none" stroke="#7c3aed" stroke-width="2.4" marker-end="url(#arrowA)"/>
  <path d="M 945.0,330.0 L 665.0,420.0" fill="none" stroke="#10b981" stroke-width="2.4" marker-end="url(#arrowB)"/>
  <path d="M 665.0,420.0 L 945.0,330.0" fill="none" stroke="#f97316" stroke-width="2.4" marker-end="url(#arrowE)"/>
  <path d="M 945.0,280.0 L 665.0,170.0" fill="none" stroke="#10b981" stroke-width="2.4" marker-end="url(#arrowB)"/>
  <rect x="80.0" y="120.0" width="140.0" height="50.0" rx="10.0" fill="#ffffff" stroke="#d1d5db" stroke-width="1.8" filter="url(#shadowSoft)"/>
  <text x="150.0" y="145.0" text-anchor="middle" class="node-title">用户/外部系统</text>
  <rect x="340.0" y="120.0" width="140.0" height="50.0" rx="10.0" fill="#ffffff" stroke="#d1d5db" stroke-width="1.8" filter="url(#shadowSoft)"/>
  <text x="410.0" y="145.0" text-anchor="middle" class="node-title">版本发布服务</text>
  <rect x="600.0" y="120.0" width="130.0" height="50.0" rx="10.0" fill="#ffffff" stroke="#d1d5db" stroke-width="1.8" filter="url(#shadowSoft)"/>
  <text x="665.0" y="145.0" text-anchor="middle" class="node-title">WorkflowEvent</text>
  <rect x="860.0" y="120.0" width="190.0" height="50.0" rx="10.0" fill="#ffffff" stroke="#d1d5db" stroke-width="1.8" filter="url(#shadowSoft)"/>
  <text x="955.0" y="145.0" text-anchor="middle" class="node-title">PromotionRuleEvaluator</text>
  <rect x="860.0" y="280.0" width="170.0" height="50.0" rx="10.0" fill="#ffffff" stroke="#d1d5db" stroke-width="1.8" filter="url(#shadowSoft)"/>
  <text x="945.0" y="305.0" text-anchor="middle" class="node-title">WorkflowActionService</text>
  <rect x="600.0" y="420.0" width="130.0" height="50.0" rx="10.0" fill="#ffffff" stroke="#d1d5db" stroke-width="1.8" filter="url(#shadowSoft)"/>
  <text x="665.0" y="445.0" text-anchor="middle" class="node-title">资产服务</text>
  <rect x="233.0" y="115.0" width="94" height="20" rx="6" fill="#ffffff" opacity="0.94"/>
  <text x="280.0" y="129.0" text-anchor="middle" class="arrow-label">发布 requirement</text>
  <rect x="484.0" y="131.0" width="112" height="20" rx="6" fill="#ffffff" opacity="0.94"/>
  <text x="540.0" y="145.0" text-anchor="middle" class="arrow-label">记录 AssetPublished</text>
  <rect x="772.0" y="115.0" width="46" height="20" rx="6" fill="#ffffff" opacity="0.94"/>
  <text x="795.0" y="129.0" text-anchor="middle" class="arrow-label">触发规则评估</text>
  <rect x="879.0" y="195.0" width="142" height="20" rx="6" fill="#ffffff" opacity="0.94"/>
  <text x="950.0" y="209.0" text-anchor="middle" class="arrow-label">创建 create_work_item 动作</text>
  <rect x="713.0" y="345.0" width="184" height="20" rx="6" fill="#ffffff" opacity="0.94"/>
  <text x="805.0" y="359.0" text-anchor="middle" class="arrow-label">创建或关联 work_item(kind=feature)</text>
  <rect x="785.0" y="377.0" width="40" height="20" rx="6" fill="#ffffff" opacity="0.94"/>
  <text x="805.0" y="391.0" text-anchor="middle" class="arrow-label">返回工作项</text>
  <rect x="746.0" y="227.0" width="118" height="20" rx="6" fill="#ffffff" opacity="0.94"/>
  <text x="805.0" y="241.0" text-anchor="middle" class="arrow-label">记录 WorkItemCreated</text>
</svg>