<svg xmlns="http://www.w3.org/2000/svg" viewBox="0 0 1200 640" width="1200" height="640">
  <defs>
    <marker id="arrowA" markerWidth="10" markerHeight="7" refX="9" refY="3.5" orient="auto">
      <polygon points="0 0, 10 3.5, 0 7" fill="#7c3aed"/>
    </marker>
    <marker id="arrowB" markerWidth="10" markerHeight="7" refX="9" refY="3.5" orient="auto">
      <polygon points="0 0, 10 3.5, 0 7" fill="#10b981"/>
    </marker>
    <marker id="arrowC" markerWidth="10" markerHeight="7" refX="9" refY="3.5" orient="auto">
      <polygon points="0 0, 10 3.5, 0 7" fill="#2563eb"/>
    </marker>
    <marker id="arrowE" markerWidth="10" markerHeight="7" refX="9" refY="3.5" orient="auto">
      <polygon points="0 0, 10 3.5, 0 7" fill="#f97316"/>
    </marker>
    <marker id="arrowF" markerWidth="10" markerHeight="7" refX="9" refY="3.5" orient="auto">
      <polygon points="0 0, 10 3.5, 0 7" fill="#7c3aed"/>
    </marker>
    <marker id="arrowG" markerWidth="10" markerHeight="7" refX="9" refY="3.5" orient="auto">
      <polygon points="0 0, 10 3.5, 0 7" fill="#ef4444"/>
    </marker>
    <marker id="arrowH" markerWidth="10" markerHeight="7" refX="9" refY="3.5" orient="auto">
      <polygon points="0 0, 10 3.5, 0 7" fill="#6b7280"/>
    </marker>
    <filter id="shadowSoft" x="-20%" y="-20%" width="140%" height="160%">
      <feDropShadow dx="0" dy="3" stdDeviation="6" flood-color="#0f172a" flood-opacity="0.12"/>
    </filter>
    <filter id="shadowGlass" x="-20%" y="-20%" width="140%" height="160%">
      <feDropShadow dx="0" dy="10" stdDeviation="16" flood-color="#020617" flood-opacity="0.28"/>
    </filter>
    <style>
    text { font-family: 'Noto Sans SC', 'Helvetica Neue', Helvetica, Arial, 'Microsoft YaHei', sans-serif; }
    .title { font-size: 30px; font-weight: 700; fill: #111827; }
    .subtitle { font-size: 14px; font-weight: 500; fill: #6b7280; }
    .section { font-size: 13px; font-weight: 700; fill: #2563eb; letter-spacing: 1.4px; }
    .section-sub { font-size: 12px; font-weight: 500; fill: #94a3b8; }
    .node-title { font-size: 13px; font-weight: 700; fill: #111827; }
    .node-sub { font-size: 12px; font-weight: 500; fill: #6b7280; }
    .node-type { font-size: 10px; font-weight: 700; fill: #9ca3af; letter-spacing: 0.08em; }
    .arrow-label { font-size: 12px; font-weight: 600; fill: #6b7280; }
    .legend { font-size: 12px; font-weight: 500; fill: #6b7280; }
    .footnote { font-size: 12px; font-weight: 500; fill: #94a3b8; }
    </style>
  </defs>
  <rect width="1200.0" height="640.0" fill="#ffffff"/>
  <text x="600.0" y="56" text-anchor="middle" class="title">核心数据对象</text>
  <path d="M 180.0,102.5 L 280.0,102.5" fill="none" stroke="#7c3aed" stroke-width="2.4" marker-end="url(#arrowA)"/>
  <path d="M 420.0,102.5 L 540.0,102.5" fill="none" stroke="#7c3aed" stroke-width="2.4" marker-end="url(#arrowA)"/>
  <path d="M 350.0,125.0 L 360.0,200.0" fill="none" stroke="#7c3aed" stroke-width="2.4" marker-end="url(#arrowA)"/>
  <path d="M 350.0,125.0 L 605.0,200.0" fill="none" stroke="#7c3aed" stroke-width="2.4" marker-end="url(#arrowA)"/>
  <path d="M 610.0,125.0 L 870.0,200.0" fill="none" stroke="#7c3aed" stroke-width="2.4" marker-end="url(#arrowA)"/>
  <path d="M 680.0,102.5 L 780.0,102.5" fill="none" stroke="#7c3aed" stroke-width="2.4" marker-end="url(#arrowA)"/>
  <path d="M 200.0,342.5 L 200.0,280.0 L 540.0,280.0 L 540.0,342.5" fill="none" stroke="#7c3aed" stroke-width="2.4" marker-end="url(#arrowA)"/>
  <path d="M 440.0,342.5 L 540.0,342.5" fill="none" stroke="#7c3aed" stroke-width="2.4" marker-end="url(#arrowA)"/>
  <path d="M 615.0,365.0 L 605.0,440.0" fill="none" stroke="#7c3aed" stroke-width="2.4" marker-end="url(#arrowA)"/>
  <path d="M 615.0,365.0 L 855.0,440.0" fill="none" stroke="#7c3aed" stroke-width="2.4" marker-end="url(#arrowA)"/>
  <path d="M 615.0,365.0 L 370.0,440.0" fill="none" stroke="#7c3aed" stroke-width="2.4" marker-end="url(#arrowA)"/>
  <rect x="60.0" y="80.0" width="120.0" height="45.0" rx="10.0" fill="#ffffff" stroke="#d1d5db" stroke-width="1.8" filter="url(#shadowSoft)"/>
  <text x="120.0" y="98.0" text-anchor="middle" class="node-type">ENTITY</text>
  <text x="120.0" y="108.5" text-anchor="middle" class="node-title">ASSET_TYPE</text>
  <rect x="280.0" y="80.0" width="140.0" height="45.0" rx="10.0" fill="#ffffff" stroke="#d1d5db" stroke-width="1.8" filter="url(#shadowSoft)"/>
  <text x="350.0" y="98.0" text-anchor="middle" class="node-type">ENTITY</text>
  <text x="350.0" y="108.5" text-anchor="middle" class="node-title">ASSET_INSTANCE</text>
  <rect x="540.0" y="80.0" width="140.0" height="45.0" rx="10.0" fill="#ffffff" stroke="#d1d5db" stroke-width="1.8" filter="url(#shadowSoft)"/>
  <text x="610.0" y="98.0" text-anchor="middle" class="node-type">ENTITY</text>
  <text x="610.0" y="108.5" text-anchor="middle" class="node-title">ASSET_VERSION</text>
  <rect x="780.0" y="80.0" width="150.0" height="45.0" rx="10.0" fill="#ffffff" stroke="#d1d5db" stroke-width="1.8" filter="url(#shadowSoft)"/>
  <text x="855.0" y="98.0" text-anchor="middle" class="node-type">ENTITY</text>
  <text x="855.0" y="108.5" text-anchor="middle" class="node-title">VIRTUAL_INSTANCE</text>
  <rect x="280.0" y="200.0" width="160.0" height="45.0" rx="10.0" fill="#ffffff" stroke="#d1d5db" stroke-width="1.8" filter="url(#shadowSoft)"/>
  <text x="360.0" y="218.0" text-anchor="middle" class="node-type">ENTITY</text>
  <text x="360.0" y="228.5" text-anchor="middle" class="node-title">ASSET_DEPENDENCY</text>
  <rect x="540.0" y="200.0" width="130.0" height="45.0" rx="10.0" fill="#ffffff" stroke="#d1d5db" stroke-width="1.8" filter="url(#shadowSoft)"/>
  <text x="605.0" y="218.0" text-anchor="middle" class="node-type">ENTITY</text>
  <text x="605.0" y="228.5" text-anchor="middle" class="node-title">DIRTY_QUEUE</text>
  <rect x="780.0" y="200.0" width="180.0" height="45.0" rx="10.0" fill="#ffffff" stroke="#d1d5db" stroke-width="1.8" filter="url(#shadowSoft)"/>
  <text x="870.0" y="218.0" text-anchor="middle" class="node-type">ENTITY</text>
  <text x="870.0" y="228.5" text-anchor="middle" class="node-title">DIRTY_RESOLUTION_LOG</text>
  <rect x="60.0" y="320.0" width="140.0" height="45.0" rx="10.0" fill="#ffffff" stroke="#d1d5db" stroke-width="1.8" filter="url(#shadowSoft)"/>
  <text x="130.0" y="338.0" text-anchor="middle" class="node-type">ENTITY</text>
  <text x="130.0" y="348.5" text-anchor="middle" class="node-title">WORKFLOW_EVENT</text>
  <rect x="280.0" y="320.0" width="160.0" height="45.0" rx="10.0" fill="#ffffff" stroke="#d1d5db" stroke-width="1.8" filter="url(#shadowSoft)"/>
  <text x="360.0" y="338.0" text-anchor="middle" class="node-type">ENTITY</text>
  <text x="360.0" y="348.5" text-anchor="middle" class="node-title">WORKFLOW_INSTANCE</text>
  <rect x="540.0" y="320.0" width="150.0" height="45.0" rx="10.0" fill="#ffffff" stroke="#d1d5db" stroke-width="1.8" filter="url(#shadowSoft)"/>
  <text x="615.0" y="338.0" text-anchor="middle" class="node-type">ENTITY</text>
  <text x="615.0" y="348.5" text-anchor="middle" class="node-title">WORKFLOW_ACTION</text>
  <rect x="280.0" y="440.0" width="180.0" height="45.0" rx="10.0" fill="#ffffff" stroke="#d1d5db" stroke-width="1.8" filter="url(#shadowSoft)"/>
  <text x="370.0" y="458.0" text-anchor="middle" class="node-type">ENTITY</text>
  <text x="370.0" y="468.5" text-anchor="middle" class="node-title">WORKFLOW_DEAD_LETTER</text>
  <rect x="540.0" y="440.0" width="130.0" height="45.0" rx="10.0" fill="#ffffff" stroke="#d1d5db" stroke-width="1.8" filter="url(#shadowSoft)"/>
  <text x="605.0" y="458.0" text-anchor="middle" class="node-type">ENTITY</text>
  <text x="605.0" y="468.5" text-anchor="middle" class="node-title">AGENT_TASK</text>
  <rect x="780.0" y="440.0" width="150.0" height="45.0" rx="10.0" fill="#ffffff" stroke="#d1d5db" stroke-width="1.8" filter="url(#shadowSoft)"/>
  <text x="855.0" y="458.0" text-anchor="middle" class="node-type">ENTITY</text>
  <text x="855.0" y="468.5" text-anchor="middle" class="node-title">APPROVAL_GATE</text>
  <rect x="183.0" y="72.5" width="94" height="20" rx="6" fill="#ffffff" opacity="0.94"/>
  <text x="230.0" y="86.5" text-anchor="middle" class="arrow-label">classifies 1:N</text>
  <rect x="436.0" y="56.5" width="88" height="20" rx="6" fill="#ffffff" opacity="0.94"/>
  <text x="480.0" y="70.5" text-anchor="middle" class="arrow-label">publishes 1:N</text>
  <rect x="299.0" y="132.5" width="112" height="20" rx="6" fill="#ffffff" opacity="0.94"/>
  <text x="355.0" y="146.5" text-anchor="middle" class="arrow-label">source/target 1:N</text>
  <rect x="436.5" y="132.5" width="82" height="20" rx="6" fill="#ffffff" opacity="0.94"/>
  <text x="477.5" y="146.5" text-anchor="middle" class="arrow-label">affected 1:N</text>
  <rect x="699.0" y="132.5" width="82" height="20" rx="6" fill="#ffffff" opacity="0.94"/>
  <text x="740.0" y="146.5" text-anchor="middle" class="arrow-label">reviewed 1:N</text>
  <rect x="692.0" y="56.5" width="76" height="20" rx="6" fill="#ffffff" opacity="0.94"/>
  <text x="730.0" y="70.5" text-anchor="middle" class="arrow-label">anchors 1:N</text>
  <rect x="335.0" y="234.0" width="70" height="20" rx="6" fill="#ffffff" opacity="0.94"/>
  <text x="370.0" y="248.0" text-anchor="middle" class="arrow-label">causes 1:N</text>
  <rect x="449.0" y="312.5" width="82" height="20" rx="6" fill="#ffffff" opacity="0.94"/>
  <text x="490.0" y="326.5" text-anchor="middle" class="arrow-label">contains 1:N</text>
  <rect x="569.0" y="372.5" width="82" height="20" rx="6" fill="#ffffff" opacity="0.94"/>
  <text x="610.0" y="386.5" text-anchor="middle" class="arrow-label">executes 1:N</text>
  <rect x="694.0" y="372.5" width="82" height="20" rx="6" fill="#ffffff" opacity="0.94"/>
  <text x="735.0" y="386.5" text-anchor="middle" class="arrow-label">requires 1:N</text>
  <rect x="445.5" y="372.5" width="94" height="20" rx="6" fill="#ffffff" opacity="0.94"/>
  <text x="492.5" y="386.5" text-anchor="middle" class="arrow-label">fails_into 1:N</text>
</svg>