<svg xmlns="http://www.w3.org/2000/svg" viewBox="0 0 960 600" width="960" height="600">
  <defs>
    <marker id="arrowA" markerWidth="10" markerHeight="7" refX="9" refY="3.5" orient="auto">
      <polygon points="0 0, 10 3.5, 0 7" fill="#7c3aed"/>
    </marker>
    <marker id="arrowB" markerWidth="10" markerHeight="7" refX="9" refY="3.5" orient="auto">
      <polygon points="0 0, 10 3.5, 0 7" fill="#10b981"/>
    </marker>
    <marker id="arrowC" markerWidth="10" markerHeight="7" refX="9" refY="3.5" orient="auto">
      <polygon points="0 0, 10 3.5, 0 7" fill="#2563eb"/>
    </marker>
    <marker id="arrowE" markerWidth="10" markerHeight="7" refX="9" refY="3.5" orient="auto">
      <polygon points="0 0, 10 3.5, 0 7" fill="#f97316"/>
    </marker>
    <marker id="arrowF" markerWidth="10" markerHeight="7" refX="9" refY="3.5" orient="auto">
      <polygon points="0 0, 10 3.5, 0 7" fill="#7c3aed"/>
    </marker>
    <marker id="arrowG" markerWidth="10" markerHeight="7" refX="9" refY="3.5" orient="auto">
      <polygon points="0 0, 10 3.5, 0 7" fill="#ef4444"/>
    </marker>
    <marker id="arrowH" markerWidth="10" markerHeight="7" refX="9" refY="3.5" orient="auto">
      <polygon points="0 0, 10 3.5, 0 7" fill="#6b7280"/>
    </marker>
    <filter id="shadowSoft" x="-20%" y="-20%" width="140%" height="160%">
      <feDropShadow dx="0" dy="3" stdDeviation="6" flood-color="#0f172a" flood-opacity="0.12"/>
    </filter>
    <filter id="shadowGlass" x="-20%" y="-20%" width="140%" height="160%">
      <feDropShadow dx="0" dy="10" stdDeviation="16" flood-color="#020617" flood-opacity="0.28"/>
    </filter>
    <style>
    text { font-family: 'Noto Sans SC', 'Helvetica Neue', Helvetica, Arial, 'Microsoft YaHei', sans-serif; }
    .title { font-size: 30px; font-weight: 700; fill: #111827; }
    .subtitle { font-size: 14px; font-weight: 500; fill: #6b7280; }
    .section { font-size: 13px; font-weight: 700; fill: #2563eb; letter-spacing: 1.4px; }
    .section-sub { font-size: 12px; font-weight: 500; fill: #94a3b8; }
    .node-title { font-size: 15px; font-weight: 700; fill: #111827; }
    .node-sub { font-size: 12px; font-weight: 500; fill: #6b7280; }
    .node-type { font-size: 12px; font-weight: 700; fill: #9ca3af; letter-spacing: 0.08em; }
    .arrow-label { font-size: 12px; font-weight: 600; fill: #6b7280; }
    .legend { font-size: 12px; font-weight: 500; fill: #6b7280; }
    .footnote { font-size: 12px; font-weight: 500; fill: #94a3b8; }
    </style>
  </defs>
  <rect width="960.0" height="600.0" fill="#ffffff"/>
  <text x="480.0" y="56" text-anchor="middle" class="title">流水线失败触发修复流程</text>
  <path d="M 240.0,185.0 L 300.0,185.0" fill="none" stroke="#7c3aed" stroke-width="2.4" marker-end="url(#arrowA)"/>
  <path d="M 450.0,185.0 L 500.0,172.5" fill="none" stroke="#7c3aed" stroke-width="2.4" marker-end="url(#arrowA)"/>
  <path d="M 670.0,172.5 L 740.0,185.0" fill="none" stroke="#7c3aed" stroke-width="2.4" marker-end="url(#arrowA)"/>
  <path d="M 835.0,210.0 L 440.0,300.0" fill="none" stroke="#7c3aed" stroke-width="2.4" marker-end="url(#arrowA)"/>
  <path d="M 580.0,330.0 L 640.0,325.0" fill="none" stroke="#7c3aed" stroke-width="2.4" marker-end="url(#arrowA)"/>
  <path d="M 730.0,350.0 L 385.0,420.0" fill="none" stroke="#7c3aed" stroke-width="2.4" marker-end="url(#arrowA)"/>
  <path d="M 470.0,445.0 L 540.0,445.0" fill="none" stroke="#7c3aed" stroke-width="2.4" marker-end="url(#arrowA)"/>
  <rect x="80.0" y="160.0" width="160.0" height="50.0" rx="10.0" fill="#ffffff" stroke="#d1d5db" stroke-width="1.8" filter="url(#shadowSoft)"/>
  <text x="160.0" y="185.0" text-anchor="middle" class="node-title">PipelineRunFailed</text>
  <rect x="300.0" y="160.0" width="150.0" height="50.0" rx="10.0" fill="#ffffff" stroke="#d1d5db" stroke-width="1.8" filter="url(#shadowSoft)"/>
  <text x="375.0" y="185.0" text-anchor="middle" class="node-title">PromotionRule</text>
  <rect x="500.0" y="140.0" width="170.0" height="65.0" rx="10.0" fill="#ffffff" stroke="#d1d5db" stroke-width="1.8" filter="url(#shadowSoft)"/>
  <text x="585.0" y="164.0" text-anchor="middle" class="node-title">
    <tspan x="585.0" dy="0">ApprovalGate:</tspan>
    <tspan x="585.0" dy="17">是否创建 bugfix</tspan>
  </text>
  <rect x="740.0" y="160.0" width="190.0" height="50.0" rx="10.0" fill="#ffffff" stroke="#d1d5db" stroke-width="1.8" filter="url(#shadowSoft)"/>
  <text x="835.0" y="185.0" text-anchor="middle" class="node-title">work_item(kind=bugfix)</text>
  <rect x="300.0" y="300.0" width="280.0" height="60.0" rx="10.0" fill="#ffffff" stroke="#d1d5db" stroke-width="1.8" filter="url(#shadowSoft)"/>
  <text x="440.0" y="321.5" text-anchor="middle" class="node-title">
    <tspan x="440.0" dy="0">关联 requirement /</tspan>
    <tspan x="440.0" dy="17">test_case / code context</tspan>
  </text>
  <rect x="640.0" y="300.0" width="180.0" height="50.0" rx="10.0" fill="#ffffff" stroke="#d1d5db" stroke-width="1.8" filter="url(#shadowSoft)"/>
  <text x="730.0" y="325.0" text-anchor="middle" class="node-title">Agent 生成修复建议</text>
  <rect x="300.0" y="420.0" width="170.0" height="50.0" rx="10.0" fill="#ffffff" stroke="#d1d5db" stroke-width="1.8" filter="url(#shadowSoft)"/>
  <text x="385.0" y="445.0" text-anchor="middle" class="node-title">发布 code_commit</text>
  <rect x="540.0" y="420.0" width="180.0" height="50.0" rx="10.0" fill="#ffffff" stroke="#d1d5db" stroke-width="1.8" filter="url(#shadowSoft)"/>
  <text x="630.0" y="445.0" text-anchor="middle" class="node-title">重新运行 pipeline</text>
  <rect x="687.0" y="148.75" width="36" height="20" rx="6" fill="#ffffff" opacity="0.94"/>
  <text x="705.0" y="162.75" text-anchor="middle" class="arrow-label">批准</text>
</svg>